<svg width="28" height="28" viewBox="0 0 28 28" fill="none" xmlns="http://www.w3.org/2000/svg">
<path fill-rule="evenodd" clip-rule="evenodd" d="M11.7237 21.4934C17.1193 21.4934 21.4934 17.1193 21.4934 11.7237C21.4934 6.328 17.1193 1.95394 11.7237 1.95394C6.328 1.95394 1.95394 6.328 1.95394 11.7237C1.95394 17.1193 6.328 21.4934 11.7237 21.4934ZM11.7237 23.4473C18.1985 23.4473 23.4473 18.1985 23.4473 11.7237C23.4473 5.24886 18.1985 0 11.7237 0C5.24886 0 0 5.24886 0 11.7237C0 18.1985 5.24886 23.4473 11.7237 23.4473Z" fill="black"/>
<rect x="19.9441" y="18.5625" width="11.3927" height="1.95394" transform="rotate(45 19.9441 18.5625)" fill="black"/>
</svg>
