<svg width="166" height="34" viewBox="0 0 166 34" fill="none" xmlns="http://www.w3.org/2000/svg">
<path d="M123.447 16.4536C123.447 14.4629 123.447 12.6989 123.447 10.9286C123.447 10.0277 123.491 9.08273 124.682 9.03233C126.049 8.97564 125.986 10.034 125.992 10.9664C125.998 15.6031 126.005 20.2399 125.986 24.8766C125.986 25.6074 126.162 26.439 125.28 26.8611C124.467 27.2454 123.957 26.8233 123.541 26.1744C123.27 25.7523 123.037 26.0421 122.754 26.1933C119.686 27.8502 116.914 27.447 115.099 25.1034C113.298 22.7724 113.417 19.024 115.37 16.8631C117.292 14.7401 120.209 14.5133 123.447 16.4536ZM119.938 24.7002C121.991 24.675 123.434 23.1504 123.396 21.0463C123.359 19.0744 121.872 17.6443 119.849 17.6443C117.834 17.638 116.435 19.0618 116.429 21.1282C116.429 23.2638 117.859 24.7254 119.938 24.7002Z" fill="#535353"/>
<path d="M16.6066 16.4662C19.366 14.5195 22.3459 14.677 24.3492 16.8442C26.3337 18.9924 26.466 22.911 24.6327 25.2105C22.7743 27.5477 19.7125 27.8753 16.3924 25.8971C16.3924 27.2957 16.3924 28.5431 16.3924 29.7968C16.3924 30.3323 16.4239 30.8804 16.3609 31.4096C16.2727 32.2097 15.8255 32.7073 14.9687 32.6507C14.1749 32.6003 13.8473 32.0711 13.8473 31.3403C13.841 26.4389 13.8473 21.5376 13.8473 16.6363C13.8473 16.0252 14.1308 15.5968 14.6915 15.3952C15.7121 15.0172 16.0523 15.9622 16.6066 16.4662ZM23.3034 21.1596C23.2782 19.1058 21.8734 17.6443 19.9141 17.638C17.8603 17.6317 16.3987 19.1247 16.405 21.2163C16.405 23.3016 17.8855 24.7506 19.9771 24.7191C21.9427 24.6876 23.3286 23.2071 23.3034 21.1596Z" fill="#535353"/>
<path d="M5.51871 27.2453C3.47124 27.2075 1.46156 26.3129 0.26458 23.9945C-0.170113 23.1503 -0.113414 22.4007 0.781173 21.9345C1.65686 21.4746 2.15455 22.0101 2.60185 22.7157C3.74843 24.5426 5.27931 25.1726 7.08108 24.6308C8.10797 24.3221 8.78206 23.648 8.95216 22.6086C9.13485 21.5187 8.57416 20.6808 7.61658 20.2524C6.49519 19.7484 5.29191 19.4082 4.13273 18.9861C1.40486 17.997 0.113383 16.3212 0.31498 14.047C0.516577 11.7916 2.17975 10.0969 4.61152 9.66854C7.38348 9.17715 9.97904 10.2859 10.9681 12.3964C11.365 13.2406 11.5666 14.1541 10.609 14.6707C9.63885 15.1873 9.07186 14.5699 8.60566 13.6879C7.86227 12.2956 6.44479 11.7916 4.86981 12.2326C3.86183 12.5161 3.13104 13.0894 3.03654 14.2234C2.94204 15.2944 3.52793 15.9685 4.44772 16.3338C5.54391 16.7748 6.69049 17.0898 7.79927 17.5056C10.8232 18.6585 12.0391 20.5611 11.5288 23.2763C11.0752 25.6829 8.90176 27.239 5.51871 27.2453Z" fill="#535353"/>
<path d="M75.095 27.239C71.1134 27.2642 67.9131 25.0718 66.5649 21.6699C65.1852 18.186 66.1554 14.0281 68.9022 11.59C71.5796 9.21495 75.3659 8.73616 78.5599 10.3804C78.9883 10.6009 79.3978 10.8718 79.7884 11.149C80.557 11.6845 80.8657 12.4153 80.3239 13.2343C79.7569 14.0785 78.9757 13.9903 78.2134 13.4296C77.237 12.7114 76.1849 12.2263 74.9438 12.1822C72.2915 12.0814 70.1118 13.4989 69.1542 15.9874C68.1336 18.627 68.8959 21.6258 71.0126 23.3142C73.0664 24.9521 75.6242 25.0403 77.9173 23.4842C78.7867 22.8921 79.6876 22.3125 80.4058 23.4401C81.0736 24.4859 80.3176 25.2482 79.4419 25.8341C78.0181 26.7854 76.4432 27.2705 75.095 27.239Z" fill="#535353"/>
<path d="M39.4501 21.1848C39.4501 22.5897 39.4501 23.9883 39.4501 25.3932C39.4501 26.0043 39.3997 26.5775 38.7256 26.8736C38.0641 27.1697 37.5349 26.9618 37.1947 26.4011C36.8293 25.7964 36.571 25.9791 36.0796 26.2814C33.4904 27.8753 30.4853 27.4343 28.6331 25.2546C26.6991 22.974 26.7054 19.3137 28.6583 17.0458C30.5294 14.8723 33.503 14.4313 36.1048 16.0378C36.6403 16.3654 36.8671 16.4347 37.2136 15.8803C37.5223 15.3889 38.0137 15.1621 38.6122 15.3952C39.2611 15.6472 39.4564 16.1638 39.4501 16.8127C39.4438 18.2743 39.4501 19.7295 39.4501 21.1848ZM33.3833 17.638C31.3673 17.6191 29.912 19.0492 29.8868 21.0714C29.8616 23.1693 31.3295 24.6939 33.3833 24.6939C35.4433 24.6939 36.9175 23.1819 36.8986 21.084C36.8797 19.1122 35.4055 17.6632 33.3833 17.638Z" fill="#535353"/>
<path d="M59.32 22.1864C58.3498 22.1864 57.3796 22.1738 56.4094 22.1927C56.0503 22.199 55.5968 22.0541 55.3826 22.4447C55.1369 22.8983 55.496 23.2763 55.7354 23.6102C56.6362 24.8891 58.5577 25.3363 60.1075 24.6371C60.4477 24.4859 60.769 24.278 61.0651 24.0449C61.6951 23.5535 62.3818 23.3582 62.9109 24.0575C63.4149 24.7253 63.1062 25.3552 62.5078 25.8907C60.202 27.9508 55.8425 27.6043 53.8958 25.1914C52.3208 23.2322 52.1003 20.12 53.3792 17.8773C54.6077 15.729 56.9323 14.721 59.6224 15.1809C62.2873 15.6408 64.2591 18.2174 64.0701 20.9075C64.0071 21.821 63.522 22.1486 62.7282 22.1612C61.5943 22.1864 60.4603 22.1675 59.3326 22.1675C59.32 22.1864 59.32 22.1864 59.32 22.1864ZM58.3939 20.1515C59.0365 20.1515 59.6854 20.1137 60.328 20.1578C61.5439 20.246 61.5691 19.6979 61.0903 18.8285C60.0571 16.9638 57.0079 16.8441 55.7354 18.6332C55.4897 18.9797 55.1747 19.3577 55.3322 19.805C55.5275 20.3531 56.0629 20.12 56.4535 20.1452C57.1024 20.183 57.745 20.1578 58.3939 20.1515Z" fill="#535353"/>
<path d="M99.6709 21.0588C99.6898 24.6434 97.1698 27.2264 93.6482 27.239C90.1265 27.2516 87.6066 24.6749 87.6318 21.0714C87.657 17.5371 90.1391 15.055 93.6356 15.0676C97.1383 15.0802 99.652 17.5749 99.6709 21.0588ZM93.6545 24.6938C95.6138 24.6812 97.0942 23.1881 97.1257 21.1911C97.1572 19.1436 95.6138 17.619 93.5474 17.6568C91.5314 17.6946 90.1832 19.1373 90.2147 21.2163C90.2462 23.2952 91.6511 24.7064 93.6545 24.6938Z" fill="#535353"/>
<path d="M111.993 21.2668C111.993 22.615 111.987 23.9631 111.993 25.3176C112 25.9917 111.943 26.6154 111.187 26.9115C110.519 27.1761 109.99 26.9304 109.656 26.3886C109.322 25.8405 109.108 26.0295 108.68 26.2941C105.089 28.5243 101.769 26.7855 101.592 22.5709C101.517 20.7376 101.58 18.9043 101.567 17.0647C101.561 16.1764 101.762 15.326 102.802 15.3323C103.904 15.3386 104.15 16.2142 104.144 17.1718C104.138 18.7342 104.119 20.3029 104.156 21.8653C104.201 23.6796 104.956 24.5994 106.387 24.6813C108.081 24.7821 109.278 23.7993 109.398 22.0102C109.511 20.347 109.455 18.6649 109.442 16.9954C109.436 16.063 109.738 15.3134 110.752 15.3323C111.779 15.3512 112.012 16.1386 111.993 17.0521C111.975 18.457 111.993 19.8619 111.993 21.2668Z" fill="#535353"/>
<path d="M41.3589 21.0902C41.3715 16.5606 45.8949 13.6941 50.0402 15.5841C50.8592 15.9558 51.6908 16.4346 51.2372 17.5119C50.7962 18.5577 49.9709 18.3813 49.0637 18.0033C47.2871 17.2599 45.5484 17.7009 44.553 19.0302C43.6647 20.2208 43.6647 22.01 44.5656 23.2637C45.5673 24.6686 47.2493 25.1159 49.0322 24.3536C49.9079 23.9819 50.7521 23.6984 51.2246 24.7694C51.7412 25.9412 50.8151 26.4136 49.9457 26.7853C45.7626 28.5871 41.34 25.6514 41.3589 21.0902Z" fill="#535353"/>
<path d="M82.9887 17.7891C82.9887 15.477 82.9824 13.165 82.9887 10.8529C82.995 9.93941 83.1084 9.03223 84.2991 9.03223C85.4961 9.03223 85.6032 9.96461 85.6095 10.8592C85.6221 15.6471 85.6158 20.4351 85.6095 25.223C85.6095 26.1617 85.3575 27.05 84.2235 26.9933C83.2155 26.9429 82.9887 26.105 82.9887 25.223C82.9887 22.7345 82.9887 20.265 82.9887 17.7891Z" fill="#535353"/>
<path d="M155.044 11.1884V22.2424H145.02H144.087C144.087 28.3467 148.993 33.2964 155.044 33.2964C161.094 33.2964 166 28.3467 166 22.2424C166 16.138 161.094 11.1884 155.044 11.1884Z" fill="#762CFF"/>
<path d="M155.044 11.1884V8.28965L145.02 0L135 8.28965V22.2424H144.088C144.088 16.1381 148.99 11.1884 155.044 11.1884Z" fill="#FFC600"/>
<path d="M155.044 22.2424V11.1884C148.993 11.1884 144.087 16.138 144.087 22.2424H145.023H155.044Z" fill="#3F0CC8"/>
</svg>
