<svg width="160" height="32" viewBox="0 0 160 32" fill="none" xmlns="http://www.w3.org/2000/svg">
<path d="M156.758 10.2269C156.758 7.69897 156.758 5.459 156.758 3.21103C156.758 2.06705 156.814 0.867064 158.326 0.803065C160.062 0.731066 159.982 2.07505 159.99 3.25903C159.998 9.14695 160.006 15.0349 159.982 20.9228C159.982 21.8508 160.206 22.9067 159.086 23.4427C158.054 23.9307 157.406 23.3947 156.878 22.5708C156.534 22.0348 156.238 22.4028 155.878 22.5948C151.982 24.6987 148.462 24.1867 146.158 21.2108C143.87 18.2508 144.022 13.4909 146.502 10.7469C148.942 8.05096 152.646 7.76297 156.758 10.2269ZM152.302 20.6988C154.91 20.6668 156.742 18.7308 156.694 16.0588C156.646 13.5549 154.758 11.7389 152.19 11.7389C149.63 11.7309 147.854 13.5389 147.846 16.1628C147.846 18.8748 149.662 20.7308 152.302 20.6988Z" fill="black"/>
<path d="M21.0878 10.2429C24.5918 7.77093 28.3757 7.97093 30.9197 10.7229C33.4397 13.4508 33.6076 18.4268 31.2797 21.3467C28.9197 24.3147 25.0318 24.7307 20.8158 22.2187C20.8158 23.9947 20.8158 25.5787 20.8158 27.1707C20.8158 27.8506 20.8558 28.5466 20.7758 29.2186C20.6638 30.2346 20.0958 30.8666 19.0079 30.7946C17.9999 30.7306 17.5839 30.0586 17.5839 29.1306C17.5759 22.9067 17.5839 16.6828 17.5839 10.4589C17.5839 9.6829 17.9439 9.13891 18.6559 8.88291C19.9518 8.40292 20.3838 9.6029 21.0878 10.2429ZM29.5917 16.2028C29.5597 13.5948 27.7757 11.7389 25.2878 11.7309C22.6798 11.7229 20.8238 13.6188 20.8318 16.2748C20.8318 18.9228 22.7118 20.7627 25.3678 20.7227C27.8637 20.6827 29.6237 18.8028 29.5917 16.2028Z" fill="black"/>
<path d="M7.00789 23.9306C4.40793 23.8826 1.85596 22.7466 0.335983 19.8027C-0.216009 18.7307 -0.14401 17.7787 0.991973 17.1867C2.10396 16.6027 2.73595 17.2827 3.30394 18.1787C4.75992 20.4987 6.70389 21.2987 8.99186 20.6107C10.2958 20.2187 11.1518 19.3627 11.3678 18.0427C11.5998 16.6587 10.8878 15.5947 9.67185 15.0508C8.24787 14.4108 6.71989 13.9788 5.24791 13.4428C1.78396 12.1868 0.143986 10.0588 0.399982 7.17087C0.655978 4.30691 2.76795 2.15494 5.8559 1.61095C9.37585 0.986956 12.6718 2.39494 13.9278 5.0749C14.4318 6.14688 14.6878 7.30687 13.4718 7.96286C12.2398 8.61885 11.5198 7.83486 10.9278 6.71487C9.98385 4.9469 8.18387 4.30691 6.1839 4.8669C4.90392 5.2269 3.97593 5.95489 3.85593 7.39486C3.73593 8.75484 4.47992 9.61083 5.64791 10.0748C7.03989 10.6348 8.49587 11.0348 9.90385 11.5628C13.7438 13.0268 15.2878 15.4427 14.6398 18.8907C14.0638 21.9467 11.3038 23.9226 7.00789 23.9306Z" fill="black"/>
<path d="M95.3587 23.9227C90.3028 23.9547 86.2388 21.1707 84.5269 16.8508C82.7749 12.4269 84.0069 7.14693 87.4948 4.05097C90.8948 1.03502 95.7027 0.427026 99.7586 2.515C100.303 2.79499 100.823 3.13899 101.319 3.49098C102.295 4.17097 102.687 5.09896 101.999 6.13894C101.279 7.21093 100.287 7.09893 99.3187 6.38694C98.0787 5.47495 96.7427 4.85896 95.1667 4.80296C91.7988 4.67497 89.0308 6.47494 87.8148 9.6349C86.5188 12.9868 87.4868 16.7948 90.1748 18.9388C92.7827 21.0187 96.0307 21.1307 98.9427 19.1548C100.047 18.4028 101.191 17.6668 102.103 19.0988C102.951 20.4267 101.991 21.3947 100.879 22.1387C99.0707 23.3467 97.0707 23.9627 95.3587 23.9227Z" fill="black"/>
<path d="M50.0953 16.2348C50.0953 18.0188 50.0953 19.7948 50.0953 21.5787C50.0953 22.3547 50.0313 23.0827 49.1754 23.4587C48.3354 23.8347 47.6634 23.5707 47.2314 22.8587C46.7674 22.0907 46.4394 22.3227 45.8154 22.7067C42.5275 24.7307 38.7115 24.1707 36.3595 21.4027C33.9036 18.5068 33.9116 13.8588 36.3915 10.9789C38.7675 8.21892 42.5435 7.65893 45.8474 9.6989C46.5274 10.1149 46.8154 10.2029 47.2554 9.49891C47.6474 8.87492 48.2714 8.58692 49.0314 8.88292C49.8553 9.20291 50.1033 9.8589 50.0953 10.6829C50.0873 12.5389 50.0953 14.3868 50.0953 16.2348ZM42.3915 11.7309C39.8315 11.7069 37.9835 13.5229 37.9515 16.0908C37.9195 18.7548 39.7835 20.6907 42.3915 20.6907C45.0074 20.6907 46.8794 18.7708 46.8554 16.1068C46.8314 13.6028 44.9594 11.7629 42.3915 11.7309Z" fill="black"/>
<path d="M75.327 17.5067C74.095 17.5067 72.863 17.4907 71.631 17.5147C71.175 17.5227 70.5991 17.3387 70.3271 17.8347C70.0151 18.4107 70.4711 18.8906 70.775 19.3146C71.919 20.9386 74.359 21.5066 76.327 20.6186C76.759 20.4266 77.167 20.1626 77.5429 19.8666C78.3429 19.2426 79.2149 18.9946 79.8869 19.8826C80.5269 20.7306 80.1349 21.5306 79.3749 22.2106C76.447 24.8266 70.911 24.3866 68.4391 21.3226C66.4391 18.8346 66.1591 14.8827 67.7831 12.0347C69.3431 9.30678 72.295 8.0268 75.711 8.61079C79.0949 9.19478 81.5989 12.4667 81.3589 15.8827C81.2789 17.0427 80.6629 17.4587 79.6549 17.4747C78.2149 17.5067 76.775 17.4827 75.343 17.4827C75.327 17.5067 75.327 17.5067 75.327 17.5067ZM74.151 14.9227C74.967 14.9227 75.791 14.8747 76.607 14.9307C78.1509 15.0427 78.1829 14.3467 77.575 13.2427C76.263 10.8748 72.391 10.7228 70.775 12.9947C70.4631 13.4347 70.0631 13.9147 70.2631 14.4827C70.5111 15.1787 71.191 14.8827 71.687 14.9147C72.511 14.9627 73.327 14.9307 74.151 14.9227Z" fill="black"/>
<path d="M126.566 16.0747C126.59 20.6267 123.39 23.9066 118.918 23.9226C114.446 23.9386 111.246 20.6667 111.278 16.0907C111.31 11.6028 114.462 8.45086 118.902 8.46686C123.35 8.48286 126.542 11.6508 126.566 16.0747ZM118.926 20.6907C121.414 20.6747 123.294 18.7787 123.334 16.2427C123.374 13.6428 121.414 11.7068 118.79 11.7548C116.23 11.8028 114.518 13.6348 114.558 16.2747C114.598 18.9147 116.382 20.7067 118.926 20.6907Z" fill="black"/>
<path d="M142.214 16.3388C142.214 18.0508 142.206 19.7628 142.214 21.4828C142.222 22.3387 142.15 23.1307 141.19 23.5067C140.342 23.8427 139.67 23.5307 139.246 22.8427C138.822 22.1467 138.55 22.3867 138.006 22.7227C133.446 25.5547 129.23 23.3467 129.006 17.9948C128.91 15.6668 128.99 13.3389 128.974 11.0029C128.966 9.87492 129.222 8.79493 130.542 8.80293C131.942 8.81093 132.254 9.92292 132.246 11.1389C132.238 13.1229 132.214 15.1148 132.262 17.0988C132.318 19.4028 133.278 20.5708 135.094 20.6748C137.246 20.8028 138.766 19.5548 138.918 17.2828C139.062 15.1708 138.99 13.0349 138.974 10.9149C138.966 9.73092 139.35 8.77893 140.638 8.80293C141.942 8.82693 142.238 9.82692 142.214 10.9869C142.19 12.7709 142.214 14.5549 142.214 16.3388Z" fill="black"/>
<path d="M52.5193 16.1147C52.5353 10.3627 58.2792 6.72279 63.5431 9.12276C64.5831 9.59475 65.6391 10.2027 65.0631 11.5707C64.5031 12.8987 63.4551 12.6747 62.3032 12.1947C60.0472 11.2507 57.8392 11.8107 56.5752 13.4987C55.4473 15.0107 55.4473 17.2826 56.5912 18.8746C57.8632 20.6586 59.9992 21.2266 62.2632 20.2586C63.3751 19.7866 64.4471 19.4266 65.0471 20.7866C65.7031 22.2746 64.5271 22.8746 63.4231 23.3466C58.1112 25.6345 52.4953 21.9066 52.5193 16.1147Z" fill="black"/>
<path d="M105.382 11.9228C105.382 8.98686 105.374 6.0509 105.382 3.11495C105.39 1.95496 105.534 0.802979 107.046 0.802979C108.566 0.802979 108.702 1.98696 108.71 3.12295C108.726 9.20286 108.718 15.2828 108.71 21.3627C108.71 22.5547 108.39 23.6827 106.95 23.6107C105.67 23.5467 105.382 22.4827 105.382 21.3627C105.382 18.2027 105.382 15.0668 105.382 11.9228Z" fill="black"/>
</svg>
