<svg width="40" height="40" viewBox="0 0 40 40" fill="none" xmlns="http://www.w3.org/2000/svg">
<path d="M5 5V35.44H35.44V5H5ZM34.44 34.44H6V6H34.44V34.44Z" fill="black"/>
<path d="M9.71001 19.3301L12.79 21.12L13.02 29.99C13.03 30.26 13.25 30.48 13.52 30.48H20.23H26.94C27.21 30.48 27.43 30.26 27.44 29.99L27.67 21.12L30.75 19.3301C30.87 19.2601 30.96 19.14 30.99 18.99C31.02 18.85 30.98 18.7 30.9 18.59L27.74 14.49C27.73 14.48 27.72 14.4801 27.72 14.4701C27.71 14.4601 27.71 14.4501 27.71 14.4501C27.69 14.4301 27.67 14.43 27.66 14.41C27.63 14.39 27.6 14.36 27.57 14.35C27.55 14.34 27.52 14.33 27.49 14.32C27.45 14.31 27.42 14.3 27.38 14.3C27.37 14.3 27.36 14.29 27.35 14.29H22.45C22.21 14.29 22.01 14.46 21.96 14.69C21.96 14.71 21.53 16.7801 20.26 16.7801C19.35 16.7801 18.88 15.73 18.68 15.12L20.12 14.66C20.13 14.66 20.13 14.65 20.14 14.65C20.18 14.64 20.2 14.62 20.24 14.6C20.26 14.58 20.29 14.57 20.31 14.55C20.33 14.53 20.35 14.5001 20.37 14.4701C20.39 14.4401 20.41 14.4201 20.42 14.3901C20.43 14.3601 20.44 14.33 20.45 14.3C20.46 14.27 20.47 14.2301 20.47 14.2001C20.47 14.1901 20.47 14.19 20.47 14.18V12.9701C20.8 12.9301 21.21 12.8101 21.53 12.5001C22.07 11.9601 22.23 11.2001 21.95 10.5301C21.64 9.77005 20.88 9.30005 19.97 9.30005C18.48 9.30005 18 10.37 17.96 10.93C17.94 11.21 18.14 11.4501 18.42 11.4701C18.69 11.5101 18.94 11.29 18.96 11.01C18.97 10.94 19.04 10.3 19.98 10.3C20.57 10.3 20.91 10.61 21.03 10.91C21.16 11.21 21.08 11.54 20.83 11.79C20.63 11.99 20.18 11.9901 20.05 11.9701C19.91 11.9501 19.76 12 19.65 12.09C19.54 12.18 19.48 12.3201 19.48 12.4701V13.8101L18 14.2801H13.13C13.12 14.2801 13.11 14.29 13.1 14.29C13.06 14.29 13.03 14.3001 12.99 14.3101C12.96 14.3201 12.94 14.32 12.91 14.34C12.88 14.36 12.85 14.38 12.82 14.4C12.8 14.41 12.78 14.42 12.77 14.44C12.76 14.45 12.76 14.46 12.76 14.46C12.75 14.47 12.74 14.47 12.74 14.48L9.58001 18.5801C9.49001 18.6901 9.46001 18.84 9.49001 18.98C9.50001 19.14 9.59001 19.2601 9.71001 19.3301ZM29.74 18.7501L27.69 19.9501L27.79 16.2201L29.74 18.7501ZM17.65 15.3C17.89 16.1 18.6 17.79 20.23 17.79C21.86 17.79 22.57 16.1 22.81 15.3H26.81L26.45 29.48H20.23H14.01L13.65 15.3H17.65ZM12.66 16.2201L12.76 19.9501L10.71 18.7501L12.66 16.2201Z" fill="black"/>
</svg>
