<svg width="40" height="40" viewBox="0 0 40 40" fill="none" xmlns="http://www.w3.org/2000/svg">
<path d="M32.03 14.24C31.75 14.24 31.53 14.46 31.53 14.74V19.36H28.56V4.5C28.56 4.22 28.34 4 28.06 4H11.47C11.19 4 10.97 4.22 10.97 4.5V19.36H8V14.74C8 14.46 7.78 14.24 7.5 14.24C7.22 14.24 7 14.46 7 14.74V19.86V34.95C7 35.23 7.22 35.45 7.5 35.45H32.03C32.31 35.45 32.53 35.23 32.53 34.95V19.86V14.74C32.53 14.46 32.31 14.24 32.03 14.24ZM11.97 5H27.56V19.86V31.71H11.97V19.86V5ZM31.53 34.45H8V20.36H10.97V32.21C10.97 32.49 11.19 32.71 11.47 32.71H28.06C28.34 32.71 28.56 32.49 28.56 32.21V20.36H31.53V34.45Z" fill="black"/>
<path d="M17.52 18.8601C17.65 18.8601 17.78 18.8101 17.87 18.7101L21.65 14.9301C21.85 14.7301 21.85 14.4201 21.65 14.2201C21.45 14.0201 21.14 14.0201 20.94 14.2201L17.16 18.0001C16.96 18.2001 16.96 18.5101 17.16 18.7101C17.26 18.8101 17.39 18.8601 17.52 18.8601Z" fill="black"/>
<path d="M17.52 22.8601C17.65 22.8601 17.78 22.8101 17.87 22.7101L21.65 18.9301C21.85 18.7301 21.85 18.4201 21.65 18.2201C21.45 18.0201 21.14 18.0201 20.94 18.2201L17.16 22.0001C16.96 22.2001 16.96 22.5101 17.16 22.7101C17.26 22.8101 17.39 22.8601 17.52 22.8601Z" fill="black"/>
</svg>
