<svg width="40" height="40" viewBox="0 0 40 40" fill="none" xmlns="http://www.w3.org/2000/svg">
<path d="M36.4627 12.7L20.6027 4.06C20.4527 3.98 20.2727 3.98 20.1227 4.06L4.26274 12.7C4.06274 12.81 3.96274 13.04 4.01274 13.26C4.07274 13.48 4.27274 13.64 4.49274 13.64H14.8327H19.8527V21.63H15.8927C14.7927 21.63 13.9027 22.52 13.9027 23.62C13.9027 24.72 14.7927 25.61 15.8927 25.61H19.8527V34.73H17.1627C16.8827 34.73 16.6627 34.95 16.6627 35.23C16.6627 35.51 16.8827 35.73 17.1627 35.73H20.3527H23.5427C23.8227 35.73 24.0427 35.51 24.0427 35.23C24.0427 34.95 23.8227 34.73 23.5427 34.73H20.8527V25.61H24.7427C25.8427 25.61 26.7327 24.72 26.7327 23.62C26.7327 22.52 25.8427 21.63 24.7427 21.63H20.8527V13.64H25.8727H36.2127C36.4427 13.64 36.6427 13.48 36.6927 13.26C36.7627 13.04 36.6627 12.81 36.4627 12.7ZM14.5627 12.64H6.46274L18.8927 5.87L14.5627 12.64ZM24.7527 22.63C25.2927 22.63 25.7427 23.07 25.7427 23.62C25.7427 24.17 25.3027 24.61 24.7527 24.61H15.9027C15.3627 24.61 14.9127 24.17 14.9127 23.62C14.9127 23.07 15.3527 22.63 15.9027 22.63H20.3627H24.7527ZM20.3627 12.64H15.7527L20.3627 5.43L24.9727 12.64H20.3627ZM26.1527 12.64L21.8227 5.87L34.2527 12.64H26.1527Z" fill="black"/>
<path d="M34.5927 30.1301L36.0827 19.8C36.1227 19.53 35.9327 19.2701 35.6627 19.2301C35.3827 19.2001 35.1327 19.38 35.0927 19.65L34.0827 26.6601H27.7427C26.6327 26.6601 25.7427 27.5601 25.7427 28.6601C25.7427 29.5801 26.3627 30.35 27.2127 30.58L26.8227 35.18C26.8027 35.46 27.0027 35.7001 27.2827 35.7201C27.2927 35.7201 27.3127 35.7201 27.3227 35.7201C27.5827 35.7201 27.8027 35.5201 27.8227 35.2601L28.2127 30.65H33.7127L35.1127 35.36C35.1727 35.58 35.3727 35.7201 35.5927 35.7201C35.6427 35.7201 35.6827 35.7101 35.7327 35.7001C35.9927 35.6201 36.1527 35.34 36.0727 35.08L34.5927 30.1301ZM27.7427 29.6701C27.1927 29.6701 26.7427 29.2201 26.7427 28.6701C26.7427 28.1201 27.1927 27.6701 27.7427 27.6701H33.9327L33.6427 29.68H27.7427V29.6701Z" fill="black"/>
<path d="M12.9828 26.66H6.64277L5.63277 19.65C5.59277 19.38 5.34277 19.1901 5.06277 19.2301C4.79277 19.2701 4.60277 19.52 4.64277 19.8L6.13277 30.13L4.66277 35.09C4.58277 35.35 4.73277 35.63 5.00277 35.71C5.05277 35.72 5.10277 35.7301 5.14277 35.7301C5.36277 35.7301 5.55277 35.59 5.62277 35.37L7.02277 30.66H12.5228L12.9128 35.2601C12.9328 35.5201 13.1528 35.72 13.4128 35.72C13.4228 35.72 13.4428 35.72 13.4528 35.72C13.7228 35.7 13.9328 35.45 13.9128 35.18L13.5228 30.58C14.3628 30.34 14.9928 29.58 14.9928 28.66C14.9828 27.56 14.0828 26.66 12.9828 26.66ZM12.9828 29.6701H7.08277L6.79277 27.66H12.9828C13.5328 27.66 13.9828 28.11 13.9828 28.66C13.9828 29.21 13.5328 29.6701 12.9828 29.6701Z" fill="black"/>
</svg>
