<svg width="40" height="40" viewBox="0 0 40 40" fill="none" xmlns="http://www.w3.org/2000/svg">
<path d="M37.06 11.3729C36.96 11.2629 36.83 11.2029 36.68 11.2029H25.21L24.64 5.45286C24.61 5.18286 24.37 4.97286 24.09 5.00286C23.82 5.03286 23.61 5.27286 23.64 5.55286L24.2 11.2029H19.2C19.05 11.2029 18.92 11.2629 18.82 11.3729C18.73 11.4829 18.68 11.6229 18.7 11.7729L20 20.8829C19.81 20.8729 19.62 20.8329 19.42 20.8329H12.38C9.31001 20.8329 6.58 22.7329 5.47 25.5729C4.09 25.7129 3 26.8629 3 28.2829C3 29.6829 4.06 30.8229 5.47 30.9929C6.58 33.8329 9.31001 35.7329 12.38 35.7329H19.42C20.34 35.7329 21.22 35.5429 22.05 35.2329L22.06 35.3029C22.1 35.5529 22.31 35.7329 22.56 35.7329H33.31C33.56 35.7329 33.77 35.5529 33.81 35.3029L37.17 11.7629C37.2 11.6329 37.16 11.4829 37.06 11.3729ZM36.11 12.2029L35.53 16.2729H25.72L25.31 12.2029H36.11ZM24.3 12.2029L24.7 16.2729H20.36L19.78 12.2029H24.3ZM12.4 21.8429H19.44C21.96 21.8429 24.22 23.3029 25.27 25.5529H6.56999C7.61999 23.3029 9.87999 21.8429 12.4 21.8429ZM4.02 28.2929C4.02 27.3329 4.8 26.5529 5.83 26.5529H26.01H26.08C27.04 26.5529 27.82 27.3329 27.82 28.2929C27.82 29.2529 27.04 30.0329 26.01 30.0329H5.83H5.75999C4.79999 30.0329 4.02 29.2529 4.02 28.2929ZM12.4 34.7429C9.87999 34.7429 7.61999 33.2829 6.56999 31.0329H25.27C24.22 33.2729 21.96 34.7429 19.44 34.7429H12.4ZM32.89 34.7429H23.13C24.57 33.9129 25.72 32.6229 26.35 31.0129C27.73 30.8729 28.82 29.7129 28.82 28.2929C28.82 26.8729 27.73 25.7129 26.35 25.5829C25.43 23.2529 23.43 21.5729 21.05 21.0429L20.51 17.2829H25.26H35.38L32.89 34.7429Z" fill="black"/>
</svg>
