<svg width="40" height="40" viewBox="0 0 40 40" fill="none" xmlns="http://www.w3.org/2000/svg">
<path d="M32.2 16.71L32.08 16.67C31.13 16.33 30.13 16.15 29.12 16.15H17.42V4.5C17.42 4.22 17.2 4 16.92 4H8.73C8.45 4 8.23 4.22 8.23 4.5V7.84001V16.64C8.19 16.65 8.16 16.66 8.12 16.67L8.01 16.71C7.41 16.93 7 17.5 7 18.14V18.43C7 19.03 7.35 19.54 7.86 19.79V35.1C7.86 35.38 8.08 35.6 8.36 35.6H27.06C27.22 35.6 27.37 35.52 27.46 35.4C27.55 35.27 27.58 35.11 27.54 34.96L27.4 34.5C27 33.18 26.04 32.13 24.75 31.63C24.51 31.54 24.26 31.47 24.01 31.42V29.8C27.89 29.46 32.15 25.24 32.33 19.8C32.84 19.56 33.2 19.04 33.2 18.43V18.14C33.21 17.51 32.8 16.93 32.2 16.71ZM9.23 5H16.42V16.15H11.09C10.46 16.15 9.84 16.22 9.23 16.36V8.34001H12.03C12.31 8.34001 12.53 8.12001 12.53 7.84001C12.53 7.56001 12.31 7.34001 12.03 7.34001H9.23V5ZM8.01 18.14C8.01 17.92 8.15 17.72 8.36 17.65L8.47 17.61C9.31 17.31 10.2 17.15 11.09 17.15H16.92H29.12C30.02 17.15 30.9 17.3 31.74 17.61L31.85 17.65C32.06 17.72 32.2 17.92 32.2 18.14V18.43C32.2 18.69 32.02 18.91 31.77 18.95C31.29 19.02 30.8 18.96 30.73 18.95H9.4C9.4 18.95 8.89 19.01 8.42 18.94C8.18 18.9 7.99 18.68 7.99 18.42V18.14H8.01ZM24.39 32.55C25.33 32.92 26.05 33.65 26.39 34.59H8.86V32.31H23.14C23.57 32.32 23.99 32.4 24.39 32.55ZM23.51 28.83C19.87 28.83 18.58 27.66 18.55 27.63C18.35 27.44 18.04 27.44 17.85 27.63C17.65 27.83 17.65 28.14 17.85 28.34C17.91 28.4 19.27 29.7 23.01 29.81V31.31H8.86V19.97C8.88 19.97 8.92 19.98 8.94 19.98C9.26 19.98 9.49 19.95 9.47 19.95H30.67C30.69 19.95 30.96 19.98 31.31 19.98C31.04 24.92 26.94 28.83 23.51 28.83Z" fill="black"/>
</svg>
