<svg width="40" height="40" viewBox="0 0 40 40" fill="none" xmlns="http://www.w3.org/2000/svg">
<path d="M36.2 10.25H29.71V3.5C29.71 3.22 29.49 3 29.21 3H10.92C10.64 3 10.42 3.22 10.42 3.5V10.25H3.5C3.22 10.25 3 10.47 3 10.75V30.08C3 30.36 3.22 30.58 3.5 30.58H10.42V35.95C10.42 36.23 10.64 36.45 10.92 36.45H29.21C29.49 36.45 29.71 36.23 29.71 35.95V30.58H36.2C36.48 30.58 36.7 30.36 36.7 30.08V10.75C36.7 10.47 36.48 10.25 36.2 10.25ZM11.42 4H28.71V10.25H11.42V4ZM28.72 30.08V35.45H11.43V30.08V21.95H28.72V30.08ZM35.7 29.58H29.71V21.45C29.71 21.17 29.49 20.95 29.21 20.95H10.92C10.64 20.95 10.42 21.17 10.42 21.45V29.58H4V11.25H10.92H29.21H35.7V29.58Z" fill="black"/>
<path d="M16.1899 26.27H23.5199C23.7999 26.27 24.0199 26.05 24.0199 25.77C24.0199 25.49 23.7999 25.27 23.5199 25.27H16.1899C15.9099 25.27 15.6899 25.49 15.6899 25.77C15.6899 26.05 15.9099 26.27 16.1899 26.27Z" fill="black"/>
<path d="M16.1899 30.58H23.5199C23.7999 30.58 24.0199 30.36 24.0199 30.08C24.0199 29.8 23.7999 29.58 23.5199 29.58H16.1899C15.9099 29.58 15.6899 29.8 15.6899 30.08C15.6899 30.36 15.9099 30.58 16.1899 30.58Z" fill="black"/>
<path d="M31.7101 16.18C32.4901 16.18 33.12 15.55 33.12 14.77C33.12 13.99 32.4901 13.36 31.7101 13.36C30.9301 13.36 30.3 13.99 30.3 14.77C30.3 15.55 30.9301 16.18 31.7101 16.18Z" fill="black"/>
<path d="M10.9199 14.77C11.4722 14.77 11.9199 14.3223 11.9199 13.77C11.9199 13.2177 11.4722 12.77 10.9199 12.77C10.3676 12.77 9.91992 13.2177 9.91992 13.77C9.91992 14.3223 10.3676 14.77 10.9199 14.77Z" fill="black"/>
<path d="M7.46997 14.77C8.02226 14.77 8.46997 14.3223 8.46997 13.77C8.46997 13.2177 8.02226 12.77 7.46997 12.77C6.91769 12.77 6.46997 13.2177 6.46997 13.77C6.46997 14.3223 6.91769 14.77 7.46997 14.77Z" fill="black"/>
</svg>
