<svg width="40" height="40" viewBox="0 0 40 40" fill="none" xmlns="http://www.w3.org/2000/svg">
<path d="M19.9424 26.23C18.3024 26.23 16.9624 27.56 16.9624 29.21C16.9624 30.86 18.2924 32.19 19.9424 32.19C21.5924 32.19 22.9224 30.86 22.9224 29.21C22.9224 27.56 21.5824 26.23 19.9424 26.23ZM19.9424 31.18C18.8524 31.18 17.9624 30.29 17.9624 29.2C17.9624 28.11 18.8524 27.22 19.9424 27.22C21.0324 27.22 21.9224 28.11 21.9224 29.2C21.9224 30.29 21.0224 31.18 19.9424 31.18Z" fill="black"/>
<path d="M19.9425 13.4C15.3525 13.4 10.9925 15.4 7.98253 18.89C7.80253 19.1 7.82254 19.42 8.03254 19.6C8.24254 19.78 8.55254 19.76 8.74254 19.55C11.5625 16.28 15.6425 14.41 19.9425 14.41C24.2425 14.41 28.3225 16.29 31.1425 19.55C31.2425 19.66 31.3825 19.72 31.5225 19.72C31.6425 19.72 31.7525 19.68 31.8525 19.6C32.0625 19.42 32.0825 19.1 31.9025 18.89C28.8825 15.4 24.5225 13.4 19.9425 13.4Z" fill="black"/>
<path d="M36.7424 14.71C32.5124 9.81001 26.3924 7 19.9324 7C13.4724 7 7.35243 9.81001 3.12243 14.71C2.94243 14.92 2.96243 15.24 3.17243 15.42C3.38243 15.6 3.69244 15.58 3.88244 15.37C7.92244 10.69 13.7724 8.01001 19.9324 8.01001C26.0924 8.01001 31.9424 10.69 35.9824 15.37C36.0824 15.48 36.2224 15.54 36.3624 15.54C36.4824 15.54 36.5924 15.5 36.6924 15.42C36.9024 15.23 36.9324 14.92 36.7424 14.71Z" fill="black"/>
<path d="M19.9425 19.96C17.2525 19.96 14.7025 21.13 12.9425 23.17C12.7625 23.38 12.7825 23.7 12.9925 23.88C13.0825 23.96 13.2025 24 13.3225 24C13.4625 24 13.6025 23.94 13.7025 23.83C15.2725 22.01 17.5525 20.96 19.9425 20.96C22.3325 20.96 24.6125 22 26.1825 23.83C26.3625 24.04 26.6825 24.06 26.8925 23.88C27.1025 23.7 27.1225 23.38 26.9425 23.17C25.1725 21.13 22.6225 19.96 19.9425 19.96Z" fill="black"/>
</svg>
