<svg width="40" height="40" viewBox="0 0 40 40" fill="none" xmlns="http://www.w3.org/2000/svg">
<path d="M29.6999 23.55C29.9799 23.55 30.1999 23.33 30.1999 23.05V18.08C30.1999 17.8 29.9799 17.58 29.6999 17.58H26.6299H10.4199C10.1399 17.58 9.91992 17.8 9.91992 18.08V23.05C9.91992 23.33 10.1399 23.55 10.4199 23.55H26.6299H29.6999ZM27.1299 18.59H29.1999V22.56H27.1299V18.59ZM10.9199 18.59H26.1299V22.56H10.9199V18.59Z" fill="black"/>
<path d="M25.4401 10.62C26.1701 10.74 26.9901 10.87 27.6701 11.42C28.6701 12.24 28.4201 14.35 28.2301 15.09C28.1601 15.36 28.3301 15.63 28.5901 15.7C28.6301 15.71 28.6701 15.71 28.7101 15.71C28.9301 15.71 29.1401 15.56 29.1901 15.33C29.2201 15.2 29.9901 12.03 28.2901 10.64C27.4001 9.92001 26.3901 9.76002 25.5801 9.63002C25.0101 9.54002 24.5101 9.46001 24.3301 9.22001C23.9501 8.73001 23.9901 7.56002 24.1001 6.93002C24.1501 6.66002 23.9701 6.40002 23.7001 6.35002C23.4201 6.30002 23.1701 6.48001 23.1201 6.75001C23.0801 6.96001 22.7801 8.83002 23.5401 9.82002C23.9801 10.39 24.6901 10.5 25.4401 10.62Z" fill="black"/>
<path d="M22.2499 12.96C23.3899 13.1 24.7699 13.61 24.8199 15.22C24.8299 15.49 25.0499 15.7 25.3199 15.7C25.3299 15.7 25.3299 15.7 25.3399 15.7C25.6199 15.69 25.8299 15.46 25.8199 15.18C25.7599 13.4 24.5099 12.22 22.3799 11.96C21.5299 11.85 20.4899 11.35 20.3299 10.29C20.1499 9.06997 20.3299 7.56996 20.3299 7.54996C20.3599 7.27996 20.1699 7.02997 19.8999 6.98997C19.6299 6.94997 19.3799 7.14996 19.3399 7.41996C19.3299 7.48996 19.1399 9.06997 19.3399 10.43C19.5599 11.96 20.9699 12.8 22.2499 12.96Z" fill="black"/>
<path d="M19.74 3C15.26 3 11.19 4.78 8.18 7.66C8.15 7.68 8.12 7.69 8.09 7.72C8.07 7.74 8.07 7.76 8.05 7.78C4.94 10.82 3 15.05 3 19.74C3 28.97 10.51 36.47 19.73 36.47C24.42 36.47 28.66 34.53 31.7 31.41C31.71 31.4 31.73 31.39 31.74 31.38C31.76 31.36 31.77 31.33 31.79 31.31C34.68 28.3 36.47 24.23 36.47 19.74C36.48 10.51 28.97 3 19.74 3ZM19.74 35.47C11.06 35.47 4.01 28.41 4.01 19.74C4.01 15.49 5.71 11.63 8.46 8.8L15.08 15.42C15.18 15.52 15.31 15.57 15.43 15.57C15.55 15.57 15.69 15.52 15.78 15.42C15.98 15.22 15.98 14.91 15.78 14.71L9.18 8.11C11.98 5.57 15.67 4.01001 19.74 4.01001C28.42 4.01001 35.47 11.07 35.47 19.74C35.47 23.81 33.91 27.5 31.37 30.3L27.01 25.94C26.81 25.74 26.5 25.74 26.3 25.94C26.1 26.14 26.1 26.45 26.3 26.65L30.68 31.03C27.85 33.77 24 35.47 19.74 35.47Z" fill="black"/>
</svg>
