<svg width="40" height="40" viewBox="0 0 40 40" fill="none" xmlns="http://www.w3.org/2000/svg">
<path d="M36.0421 7H25.4921C25.2121 7 24.9921 7.22 24.9921 7.5V12.27H5.38209C5.10209 12.27 4.88209 12.49 4.88209 12.77V27.15L3.0421 31.44C2.9721 31.6 2.99209 31.77 3.08209 31.91C3.17209 32.05 3.33209 32.13 3.50209 32.13H29.7821H36.0321C36.3121 32.13 36.5321 31.91 36.5321 31.63V7.5C36.5421 7.22 36.3121 7 36.0421 7ZM5.88209 13.27H25.4921H27.4121V20.59V24.99V26.75H5.88209V13.27ZM28.4121 21.1H32.8821V24.5H28.4121V21.1ZM4.2621 31.13L5.71209 27.75H27.5821L29.0321 31.13H4.2621ZM35.5421 31.13H30.1221L28.4121 27.15V25.49H33.3821C33.6621 25.49 33.8821 25.27 33.8821 24.99V20.59C33.8821 20.31 33.6621 20.09 33.3821 20.09H28.4121V15.07H33.3821C33.6621 15.07 33.8821 14.85 33.8821 14.57C33.8821 14.29 33.6621 14.07 33.3821 14.07H28.4121V12.76C28.4121 12.48 28.1921 12.26 27.9121 12.26H25.9921V7.99001H35.5421V31.13Z" fill="black"/>
<path d="M28.1521 11.61H33.3821C33.6621 11.61 33.8821 11.39 33.8821 11.11C33.8821 10.83 33.6621 10.61 33.3821 10.61H28.1521C27.8721 10.61 27.6521 10.83 27.6521 11.11C27.6521 11.39 27.8721 11.61 28.1521 11.61Z" fill="black"/>
</svg>
