<svg width="40" height="40" viewBox="0 0 40 40" fill="none" xmlns="http://www.w3.org/2000/svg">
<path d="M36.48 13.04H27.2V7.5C27.2 7.22 26.98 7 26.7 7H13.28C13 7 12.78 7.22 12.78 7.5V13.04H3.5C3.22 13.04 3 13.26 3 13.54V17.63C3 17.91 3.22 18.13 3.5 18.13H5.22V33.36C5.22 33.64 5.44 33.86 5.72 33.86C6 33.86 6.22 33.64 6.22 33.36V18.13H12.77V21.22H12.03C11.75 21.22 11.53 21.44 11.53 21.72V26.11C11.53 26.39 11.75 26.61 12.03 26.61H14.2V33.36C14.2 33.64 14.42 33.86 14.7 33.86C14.98 33.86 15.2 33.64 15.2 33.36V26.61H24.78V33.36C24.78 33.64 25 33.86 25.28 33.86C25.56 33.86 25.78 33.64 25.78 33.36V26.61H27.95C28.23 26.61 28.45 26.39 28.45 26.11V21.72C28.45 21.44 28.23 21.22 27.95 21.22H27.21V18.13H33.76V33.36C33.76 33.64 33.98 33.86 34.26 33.86C34.54 33.86 34.76 33.64 34.76 33.36V18.13H36.48C36.76 18.13 36.98 17.91 36.98 17.63V13.54C36.98 13.27 36.75 13.04 36.48 13.04ZM5.73 17.13H4.00999V14.04H12.79V17.13H5.73ZM27.45 22.22V25.61H25.28H14.7H12.53V22.22H13.27H26.69H27.45ZM13.78 21.22V17.63V13.54V8H26.2V13.54V17.63V21.22H13.78ZM35.98 17.13H34.26H27.21V14.04H35.99V17.13H35.98Z" fill="black"/>
</svg>
