<svg width="40" height="40" viewBox="0 0 40 40" fill="none" xmlns="http://www.w3.org/2000/svg">
<path d="M36.66 21.79H34.55V10.18C34.55 8.06001 33.05 6.28 31.06 6.03C30.89 6.01 30.72 6 30.54 6C28.76 6 27.94 6.84 27.59 7.38C25.79 6.06 23.25 6.21 21.62 7.83L21.32 8.13C21.13 8.33 21.13 8.64001 21.32 8.84001L27.14 14.66C27.23 14.75 27.36 14.81 27.49 14.81C27.62 14.81 27.75 14.76 27.84 14.66L28.14 14.36C29.87 12.63 29.92 9.88001 28.33 8.07001C28.45 7.82001 28.97 7 30.53 7C30.67 7 30.8 7.01 30.93 7.02C32.39 7.2 33.54 8.59001 33.54 10.18V21.79H6.10001H3.5C3.22 21.79 3 22.01 3 22.29C3 22.57 3.22 22.79 3.5 22.79H5.61V23.97C5.61 27.02 6.97 29.76 9.12 31.62V34.31C9.12 34.59 9.34 34.81 9.62 34.81C9.9 34.81 10.12 34.59 10.12 34.31V32.39C11.73 33.47 13.67 34.1 15.75 34.1H24.43C26.51 34.1 28.45 33.47 30.06 32.39V34.31C30.06 34.59 30.28 34.81 30.56 34.81C30.84 34.81 31.06 34.59 31.06 34.31V31.63C33.2 29.77 34.57 27.03 34.57 23.98V22.8H36.68C36.96 22.8 37.18 22.58 37.18 22.3C37.18 22.02 36.94 21.79 36.66 21.79ZM27.49 13.6L22.38 8.49001C23.79 7.13001 26.05 7.15001 27.44 8.54001C28.83 9.94001 28.85 12.19 27.49 13.6ZM33.55 23.98C33.55 29.02 29.45 33.11 24.41 33.11H15.73C10.69 33.11 6.59 29.01 6.59 23.98V22.8H33.54V23.98H33.55Z" fill="black"/>
<path d="M18.6401 11.87C18.7101 11.87 18.7701 11.86 18.8401 11.83L19.5301 11.53C19.7801 11.42 19.9001 11.12 19.7901 10.87C19.6801 10.62 19.3901 10.5 19.1301 10.61L18.4401 10.91C18.1901 11.02 18.0701 11.32 18.1801 11.57C18.2601 11.76 18.4501 11.87 18.6401 11.87Z" fill="black"/>
<path d="M15.4799 13.25C15.5499 13.25 15.6099 13.24 15.6799 13.21L17.2599 12.52C17.5099 12.41 17.6299 12.11 17.5199 11.86C17.4099 11.61 17.1199 11.49 16.8599 11.6L15.2799 12.29C15.0299 12.4 14.9099 12.7 15.0199 12.95C15.0999 13.14 15.2799 13.25 15.4799 13.25Z" fill="black"/>
<path d="M13.2099 14.24C13.2799 14.24 13.3399 14.23 13.4099 14.2L14.0999 13.9C14.3499 13.79 14.4699 13.49 14.3599 13.24C14.2499 12.99 13.9499 12.87 13.6999 12.98L13.0099 13.28C12.7599 13.39 12.6399 13.69 12.7499 13.94C12.8299 14.13 13.0199 14.24 13.2099 14.24Z" fill="black"/>
<path d="M21.88 14.48L22.41 13.95C22.61 13.75 22.61 13.44 22.41 13.24C22.21 13.04 21.9 13.04 21.7 13.24L21.17 13.77C20.97 13.97 20.97 14.28 21.17 14.48C21.27 14.58 21.4 14.63 21.52 14.63C21.64 14.63 21.79 14.57 21.88 14.48Z" fill="black"/>
<path d="M18.7399 16.92C18.8399 17.02 18.9699 17.07 19.0899 17.07C19.2099 17.07 19.3499 17.02 19.4399 16.92L20.6599 15.7C20.8599 15.5 20.8599 15.19 20.6599 14.99C20.4599 14.79 20.1499 14.79 19.9499 14.99L18.7299 16.21C18.5399 16.41 18.5399 16.72 18.7399 16.92Z" fill="black"/>
<path d="M16.9901 17.96C16.7901 18.16 16.7901 18.47 16.9901 18.67C17.0901 18.77 17.2201 18.82 17.3401 18.82C17.4601 18.82 17.6001 18.77 17.6901 18.67L18.2201 18.14C18.4201 17.94 18.4201 17.63 18.2201 17.43C18.0201 17.23 17.7101 17.23 17.5101 17.43L16.9901 17.96Z" fill="black"/>
<path d="M24.4001 17.35C24.4601 17.37 24.5201 17.39 24.5901 17.39C24.7901 17.39 24.9801 17.27 25.0501 17.08L25.3301 16.38C25.4301 16.12 25.3101 15.83 25.0501 15.73C24.7901 15.63 24.5001 15.75 24.4001 16.01L24.1201 16.71C24.0201 16.95 24.1401 17.24 24.4001 17.35Z" fill="black"/>
<path d="M23.48 18.3L22.84 19.9C22.74 20.16 22.86 20.4501 23.12 20.5501C23.18 20.5701 23.24 20.59 23.31 20.59C23.51 20.59 23.7 20.47 23.77 20.28L24.41 18.68C24.51 18.42 24.39 18.13 24.13 18.03C23.87 17.92 23.58 18.04 23.48 18.3Z" fill="black"/>
</svg>
