<svg width="40" height="40" viewBox="0 0 40 40" fill="none" xmlns="http://www.w3.org/2000/svg">
<path d="M33.58 16.33L33.44 15.64C33.14 14.16 32.15 12.88 30.79 12.22C30.13 11.9 29.4 11.73 28.67 11.73H24.19V8H15.19V11.73H10.71C9.98 11.73 9.25 11.9 8.59 12.22C7.23 12.88 6.24 14.16 5.94 15.64L5.8 16.33H3V17.33H5.76L6.76 28.32C6.81 28.83 6.95 29.32 7.19 29.78C7.6 30.55 8.26 31.17 9.06 31.52L9.28 31.62C9.78 31.84 10.3 31.95 10.85 31.95H19.69H28.53C29.07 31.95 29.6 31.84 30.1 31.62L30.32 31.52C31.12 31.17 31.78 30.55 32.19 29.78C32.43 29.33 32.57 28.84 32.62 28.32L33.62 17.33H36.38V16.33H33.58ZM16.19 9H23.19V11.73H19.69H16.19V9ZM6.93 15.84C7.17 14.66 7.95 13.65 9.03 13.12C9.55 12.87 10.13 12.73 10.71 12.73H15.19H19.69H24.19H28.67C29.25 12.73 29.83 12.86 30.35 13.12C31.43 13.64 32.22 14.66 32.45 15.84L32.55 16.34H6.83L6.93 15.84ZM31.63 28.23C31.6 28.61 31.49 28.98 31.31 29.31C31.01 29.88 30.52 30.34 29.92 30.6L29.7 30.7C29.33 30.86 28.94 30.95 28.54 30.95H19.7H10.85C10.45 30.95 10.05 30.87 9.69 30.7L9.47 30.6C8.88 30.34 8.39 29.88 8.08 29.31C7.9 28.97 7.79 28.61 7.76 28.23L6.77 17.33H32.62L31.63 28.23Z" fill="black"/>
</svg>
