<svg width="40" height="40" viewBox="0 0 40 40" fill="none" xmlns="http://www.w3.org/2000/svg">
<path d="M32.494 18.0006L32.394 17.7306C32.164 17.0706 31.744 16.5106 31.174 16.1006C30.584 15.6706 29.884 15.4406 29.144 15.4406H10.394C9.66397 15.4406 8.96397 15.6706 8.36397 16.1006C7.80397 16.5106 7.38397 17.0706 7.14397 17.7306L7.06398 18.0006C6.94398 18.3406 6.99398 18.7106 7.20398 19.0006C7.41398 19.2906 7.74398 19.4706 8.10398 19.4706H8.17398C8.36398 23.1506 10.564 26.3406 13.794 28.1406L11.034 36.7506C10.954 37.0106 11.094 37.2906 11.354 37.3806C11.404 37.4006 11.454 37.4006 11.504 37.4006C11.714 37.4006 11.914 37.2706 11.984 37.0506L13.314 32.9006H26.254L27.584 37.0506C27.654 37.2606 27.844 37.4006 28.064 37.4006C28.114 37.4006 28.164 37.3906 28.214 37.3806C28.474 37.3006 28.624 37.0106 28.534 36.7506L25.774 28.1406C29.004 26.3406 31.204 23.1506 31.394 19.4706H31.464C31.824 19.4706 32.154 19.3006 32.364 19.0006C32.564 18.7106 32.614 18.3306 32.494 18.0006ZM25.924 31.9006H13.624L14.684 28.5906C16.224 29.2806 17.944 29.6806 19.764 29.6806C21.584 29.6806 23.314 29.2806 24.844 28.5906L25.924 31.9006ZM19.774 28.6806C14.094 28.6806 9.43397 24.5906 9.15397 19.4706H30.404C30.114 24.5906 25.454 28.6806 19.774 28.6806ZM31.454 18.4606H30.924H30.914H19.134H8.64397H8.10398L8.01397 18.3306L8.11397 18.0606C8.28397 17.6006 8.57397 17.2006 8.97397 16.9106C9.39397 16.6006 9.89397 16.4406 10.414 16.4406H29.164C29.684 16.4406 30.184 16.6006 30.604 16.9106C31.004 17.2006 31.304 17.6006 31.464 18.0606L31.564 18.3306L31.454 18.4606Z" fill="black"/>
<path d="M24.804 25.8406C24.894 25.8406 24.994 25.8106 25.074 25.7606C27.074 24.4506 28.094 21.8906 28.134 21.7806C28.234 21.5206 28.1041 21.2306 27.8541 21.1306C27.6041 21.0306 27.304 21.1506 27.204 21.4106C27.194 21.4306 26.254 23.7906 24.524 24.9206C24.294 25.0706 24.224 25.3806 24.384 25.6106C24.484 25.7606 24.644 25.8406 24.804 25.8406Z" fill="black"/>
<path d="M15.7439 10.6106C15.8939 11.1506 15.8539 11.9506 15.4939 12.4206C15.2939 12.6806 15.0339 12.8006 14.6739 12.8006C14.3939 12.8006 14.1739 13.0206 14.1739 13.3006C14.1739 13.5806 14.3939 13.8006 14.6739 13.8006C15.3439 13.8006 15.9038 13.5306 16.2938 13.0206C16.8838 12.2506 16.9239 11.1106 16.7139 10.3306C16.5639 9.77059 16.1538 9.37059 15.7638 8.97059C15.3238 8.53059 14.9438 8.15059 14.9438 7.64059C14.9438 6.57059 15.9239 6.07059 15.9639 6.05059C16.2139 5.93059 16.3138 5.63059 16.1938 5.38059C16.0738 5.13059 15.7738 5.03059 15.5238 5.15059C15.4638 5.18059 13.9438 5.94059 13.9438 7.64059C13.9438 8.57059 14.5638 9.18059 15.0538 9.68059C15.3538 10.0206 15.6539 10.3106 15.7439 10.6106Z" fill="black"/>
<path d="M20.144 8.50061C20.294 9.04061 20.254 9.84061 19.894 10.3106C19.694 10.5706 19.434 10.6906 19.074 10.6906C18.794 10.6906 18.574 10.9106 18.574 11.1906C18.574 11.4706 18.794 11.6906 19.074 11.6906C19.744 11.6906 20.304 11.4206 20.694 10.9106C21.284 10.1406 21.324 9.01061 21.114 8.23061C20.964 7.67061 20.554 7.27061 20.164 6.87061C19.724 6.43061 19.344 6.05061 19.344 5.54061C19.344 4.48061 20.314 3.98061 20.364 3.95061C20.614 3.83061 20.714 3.53061 20.594 3.28061C20.474 3.03061 20.174 2.93061 19.924 3.05061C19.864 3.08061 18.344 3.84061 18.344 5.54061C18.344 6.47061 18.964 7.08061 19.454 7.58061C19.764 7.90061 20.054 8.19061 20.144 8.50061Z" fill="black"/>
<path d="M24.2241 10.6106C24.3741 11.1506 24.3341 11.9506 23.9741 12.4206C23.7741 12.6806 23.5141 12.8006 23.1541 12.8006C22.8741 12.8006 22.6541 13.0206 22.6541 13.3006C22.6541 13.5806 22.8741 13.8006 23.1541 13.8006C23.8241 13.8006 24.3841 13.5306 24.7741 13.0206C25.3641 12.2506 25.4041 11.1206 25.1941 10.3306C25.0441 9.77059 24.6341 9.37059 24.2441 8.97059C23.8041 8.53059 23.4241 8.15059 23.4241 7.64059C23.4241 6.57059 24.4041 6.07059 24.4441 6.05059C24.6941 5.93059 24.7941 5.63059 24.6741 5.38059C24.5541 5.13059 24.2541 5.03059 24.0041 5.15059C23.9441 5.18059 22.4241 5.94059 22.4241 7.64059C22.4241 8.57059 23.0441 9.18059 23.5341 9.68059C23.8441 10.0206 24.1341 10.3106 24.2241 10.6106Z" fill="black"/>
</svg>
