<svg width="40" height="40" viewBox="0 0 40 40" fill="none" xmlns="http://www.w3.org/2000/svg">
<path d="M30.83 16.9463H27.45V15.2763C28.81 14.7963 30.43 13.6163 30.43 11.3063C30.43 9.73635 29.65 8.50635 28.28 7.93635C27.18 7.47635 25.93 7.53635 24.99 8.05635C24.74 7.38635 24.24 6.42635 23.28 5.85635C22.42 5.34635 21.38 5.25635 20.19 5.58635C19.57 4.60635 17.59 2.18635 13.77 3.27635C11.2 4.02635 10.57 6.28635 10.6 7.72635C9.14 8.05635 7 9.28635 7 12.2363C7 13.1063 7.32 13.8363 7.96 14.4063C8.42 14.8163 9.01 15.1063 9.65 15.3163V23.5863V36.3063C9.65 36.5863 9.87 36.8063 10.15 36.8063H26.96C27.24 36.8063 27.46 36.5863 27.46 36.3063V31.1763H30.84C31.74 31.1763 32.46 30.4463 32.46 29.5563V18.5763C32.46 17.6763 31.73 16.9463 30.83 16.9463ZM26.45 23.0863H10.65V15.5663C12.51 15.9163 14.4 15.7263 14.48 15.7163H17.63C17.56 16.4463 17.57 17.6763 18.22 18.4863C18.63 18.9863 19.23 19.2563 19.97 19.2563C22.1 19.2563 22.88 17.0363 23.04 15.5263H26.45V17.4463V23.0863ZM8.62 13.6663C8.2 13.2863 8 12.8163 8 12.2363C8 9.01635 11.05 8.65635 11.18 8.63635C11.31 8.62635 11.44 8.55635 11.52 8.44635C11.6 8.33635 11.64 8.20635 11.62 8.06635C11.61 7.94635 11.25 5.04635 14.06 4.24635C17.95 3.13635 19.46 6.26635 19.52 6.39635C19.63 6.62635 19.9 6.74635 20.14 6.65635C21.2 6.29635 22.09 6.30635 22.78 6.71635C23.94 7.39635 24.23 8.95635 24.23 8.96635C24.26 9.14635 24.39 9.29635 24.57 9.35635C24.75 9.41635 24.94 9.36635 25.07 9.23635C25.71 8.60635 26.92 8.44635 27.9 8.85635C28.47 9.09635 29.43 9.73635 29.43 11.3063C29.43 14.0763 26.45 14.5163 26.39 14.5263H22.57C22.3 14.5263 22.08 14.7463 22.07 15.0163C22.07 15.0463 21.97 18.2563 19.96 18.2563C19.52 18.2563 19.2 18.1263 18.99 17.8563C18.45 17.1863 18.59 15.7963 18.68 15.3163C18.71 15.1663 18.67 15.0163 18.58 14.8963C18.49 14.7763 18.34 14.7163 18.19 14.7163H14.41C14.39 14.7263 10.26 15.1363 8.62 13.6663ZM26.45 35.8063H10.65V24.0863H26.46V30.6763V35.8063H26.45ZM31.46 29.5563C31.46 29.8963 31.18 30.1763 30.84 30.1763H27.46V17.9463H30.84C31.18 17.9463 31.46 18.2263 31.46 18.5663V29.5563Z" fill="black"/>
<path d="M18.1899 28.3163C18.1299 28.2463 18.0399 28.1963 17.9499 28.1563C17.7699 28.0763 17.5599 28.0763 17.3799 28.1563C17.2899 28.1963 17.1999 28.2463 17.1299 28.3163C17.0599 28.3863 17.0099 28.4663 16.9699 28.5563C16.9299 28.6563 16.9099 28.7463 16.9099 28.8463C16.9099 29.0463 16.9899 29.2363 17.1299 29.3763C17.2099 29.4463 17.2899 29.5063 17.3799 29.5363C17.4699 29.5763 17.5699 29.5963 17.6699 29.5963C17.7599 29.5963 17.8599 29.5763 17.9499 29.5363C18.0399 29.5063 18.1199 29.4463 18.1899 29.3763C18.3399 29.2363 18.4199 29.0463 18.4199 28.8463C18.4199 28.7463 18.3999 28.6563 18.3599 28.5563C18.3199 28.4663 18.2599 28.3863 18.1899 28.3163Z" fill="black"/>
<path d="M21.3701 26.2464C21.0901 25.9664 20.5901 25.9664 20.3101 26.2464C20.2401 26.3164 20.1801 26.3964 20.1501 26.4864C20.1101 26.5764 20.0901 26.6764 20.0901 26.7764C20.0901 26.8764 20.1101 26.9764 20.1501 27.0664C20.1801 27.1564 20.2401 27.2364 20.3101 27.3064C20.4501 27.4464 20.6401 27.5264 20.8401 27.5264C20.9401 27.5264 21.0301 27.5064 21.1201 27.4664C21.2201 27.4264 21.3001 27.3764 21.3701 27.3064C21.4401 27.2364 21.4901 27.1564 21.5301 27.0664C21.5701 26.9764 21.5901 26.8764 21.5901 26.7764C21.5901 26.6764 21.5701 26.5764 21.5301 26.4864C21.4901 26.3964 21.4401 26.3164 21.3701 26.2464Z" fill="black"/>
<path d="M24.9099 27.5063C24.8399 27.4363 24.7599 27.3763 24.6699 27.3363C24.3899 27.2263 24.0599 27.2963 23.8499 27.5063C23.7799 27.5763 23.7199 27.6563 23.6899 27.7463C23.6499 27.8363 23.6299 27.9363 23.6299 28.0363C23.6299 28.2363 23.7099 28.4163 23.8499 28.5663C23.9199 28.6363 23.9999 28.6863 24.0899 28.7263C24.1799 28.7663 24.2799 28.7863 24.3799 28.7863C24.5799 28.7863 24.7699 28.7063 24.9099 28.5663C25.0499 28.4263 25.1299 28.2363 25.1299 28.0363C25.1299 27.9363 25.1099 27.8363 25.0699 27.7463C25.0299 27.6563 24.9799 27.5763 24.9099 27.5063Z" fill="black"/>
<path d="M23.1301 31.2564C23.0601 31.1864 22.9701 31.1264 22.8801 31.0964C22.6001 30.9764 22.2801 31.0464 22.0701 31.2564C22.0001 31.3264 21.9401 31.4064 21.9001 31.4964C21.8701 31.5864 21.8501 31.6864 21.8501 31.7864C21.8501 31.8864 21.8701 31.9864 21.9001 32.0664C21.9401 32.1664 21.9901 32.2464 22.0701 32.3164C22.1401 32.3864 22.2201 32.4364 22.3101 32.4764C22.4001 32.5164 22.5001 32.5364 22.6001 32.5364C22.8001 32.5364 22.9801 32.4564 23.1301 32.3164C23.2701 32.1764 23.3501 31.9864 23.3501 31.7864C23.3501 31.6864 23.3301 31.5864 23.2901 31.4964C23.2501 31.4064 23.2001 31.3264 23.1301 31.2564Z" fill="black"/>
<path d="M19.9499 32.4064C19.8799 32.3364 19.7999 32.2864 19.7099 32.2464C19.4299 32.1264 19.0999 32.1964 18.8899 32.4064C18.7499 32.5464 18.6699 32.7364 18.6699 32.9364C18.6699 33.1364 18.7499 33.3264 18.8899 33.4664C18.9599 33.5364 19.0399 33.5964 19.1299 33.6364C19.2299 33.6664 19.3199 33.6864 19.4199 33.6864C19.6199 33.6864 19.8099 33.6064 19.9499 33.4664C20.0899 33.3264 20.1699 33.1364 20.1699 32.9364C20.1699 32.8464 20.1499 32.7464 20.1099 32.6564C20.0799 32.5564 20.0199 32.4764 19.9499 32.4064Z" fill="black"/>
</svg>
