<svg width="40" height="40" viewBox="0 0 40 40" fill="none" xmlns="http://www.w3.org/2000/svg">
<path d="M36.7716 20.44L31.7617 9.77C30.9717 8.08 29.2517 7 27.3917 7H20.0717H12.7517C10.8917 7 9.17165 8.09 8.38165 9.77L3.37165 20.44C2.80165 21.66 2.89166 23.06 3.61166 24.2C4.33166 25.34 5.57165 26.01 6.91165 26.01H10.3217C10.5217 30.39 14.1417 33.89 18.5717 33.89H21.5717C26.0017 33.89 29.6217 30.39 29.8217 26.01H33.2317C34.5817 26.01 35.8117 25.33 36.5317 24.2C37.2517 23.06 37.3416 21.66 36.7716 20.44ZM35.6817 23.66C35.1417 24.51 34.2217 25.01 33.2217 25.01H29.8217V20.7C29.8217 20.42 29.6017 20.2 29.3217 20.2C29.0417 20.2 28.8217 20.42 28.8217 20.7V25.51V25.63C28.8217 29.64 25.5616 32.9 21.5516 32.9H18.5516C14.5416 32.9 11.2817 29.64 11.2817 25.63V25.51V20.7C11.2817 20.42 11.0617 20.2 10.7817 20.2C10.5017 20.2 10.2817 20.42 10.2817 20.7V25.01H6.88165C5.88165 25.01 4.96166 24.51 4.42166 23.66C3.88166 22.81 3.82165 21.77 4.24165 20.86L9.25166 10.19C9.88166 8.85 11.2417 7.99 12.7117 7.99H20.0317H27.3517C28.8316 7.99 30.1917 8.85 30.8117 10.19L35.8217 20.86C36.2917 21.77 36.2217 22.82 35.6817 23.66Z" fill="black"/>
<path d="M20.0716 24.45C18.3116 24.45 16.8916 25.88 16.8916 27.63C16.8916 29.38 18.3216 30.81 20.0716 30.81C21.8216 30.81 23.2516 29.38 23.2516 27.63C23.2516 25.88 21.8216 24.45 20.0716 24.45ZM20.0716 29.81C18.8716 29.81 17.8916 28.83 17.8916 27.63C17.8916 26.43 18.8716 25.45 20.0716 25.45C21.2716 25.45 22.2516 26.43 22.2516 27.63C22.2516 28.83 21.2716 29.81 20.0716 29.81Z" fill="black"/>
<path d="M17.9616 17.88C17.9616 17.23 17.4416 16.71 16.7916 16.71C16.1416 16.71 15.6216 17.23 15.6216 17.88C15.6216 18.53 16.1416 19.05 16.7916 19.05C17.4416 19.05 17.9616 18.53 17.9616 17.88Z" fill="black"/>
<path d="M23.3416 16.71C22.6916 16.71 22.1716 17.23 22.1716 17.88C22.1716 18.53 22.6916 19.05 23.3416 19.05C23.9916 19.05 24.5116 18.53 24.5116 17.88C24.5116 17.24 23.9816 16.71 23.3416 16.71Z" fill="black"/>
</svg>
